<?xml version="1.0" encoding="utf-8"?>
<!-- Generator: Adobe Illustrator 27.2.0, SVG Export Plug-In . SVG Version: 6.00 Build 0)  -->
<svg version="1.1" id="Lager_1" xmlns="http://www.w3.org/2000/svg" xmlns:xlink="http://www.w3.org/1999/xlink" x="0px" y="0px"
	 viewBox="0 0 60 60" style="enable-background:new 0 0 60 60;" xml:space="preserve">
<g>
	<g>
		<path d="M0.2,23.8c3.2,0,6.4,0,9.7,0c0-2.1,0.6-3.9,1.9-5.5c0.4-0.5,1.1-1.3,1.7-1.3c0.5,0,1,0.9,1.4,1.5c0.8,1.6,1.3,3.3,1.1,5.3
			c14.8,0,29.5,0,44.2,0c0,0.3,0,0.5,0,0.9c-0.3,0-0.6,0-1,0c-14.1,0-28.3,0-42.4,0c-0.7,0-0.9,0.2-1.2,0.8
			c-0.5,1.3-1.2,2.5-1.8,3.8c0.2,0,0.5,0,0.8,0c6.7,0,13.5,0,20.2,0c0.7,0,1.2-0.1,1.1-0.9c4.9-0.5,9.7-0.9,14.6-1.4
			c0,0.8,0.1,1.5,0.1,2.3c3.2,0,6.3,0,9.6,0c0,0.3,0,0.5,0.1,0.9c-3.2,0-6.4,0-9.7,0c0,1.6,0,3.1,0,4.6c3.2,0,6.4,0,9.6,0
			c0,0.3,0,0.5,0,0.9c-3.2,0-6.3,0-9.6,0c0,1.6,0,3.1,0,4.7c3.2,0,6.4,0,9.6,0c0,0.3,0,0.6,0,0.9c-3.2,0-6.4,0-9.6,0
			c0,1.6,0,3.1,0,4.6c3.2,0,6.4,0,9.6,0c0,0.3,0,0.6,0,0.9c-0.5,0-1,0-1.5,0c-2.6,0-5.3,0-7.9,0c-0.3,0-0.7,0.2-0.9,0.4
			c-1.1,1.3-2.5,1.9-4.1,2c-1.4,0.1-2.1-0.5-2.3-1.9c0-0.1,0-0.3-0.1-0.5c-2.3,0-4.6,0-7,0c0,0.3-0.1,0.5,0,0.7
			c0.5,2.7-3.1,5-5.8,4.3c-1-0.2-1.6-1.4-1.1-2.6c0.4-0.9,1-1.7,1.5-2.5c-5.5,0-11.1,0-16.9,0c0.2,1,0.3,2,0.5,3
			c0.1,1.2,0.3,2.5-0.5,3.6c-1.8,2.6-5.6,2-7.2,0.3c-0.8-0.8-0.8-1.8-0.4-2.8c0.3-0.8,0.9-1.4,1.8-1.5c1-0.1,2,0.4,2.4,1.4
			c0.4,0.9,0.1,1.9-0.8,2.4c-0.4,0.3-0.8,0.4-1.2,0.6c0.6,0.7,2,1,3.2,0.6C13,54.2,14,53,14,51.5c-0.1-1.4-0.3-2.9-0.6-4.3
			c0-0.1-0.4-0.3-0.6-0.3c-3.9,0-7.8,0-11.7,0c-0.3,0-0.6,0-0.9,0C0.2,39.2,0.2,31.5,0.2,23.8z M11.9,34.8c8,0,15.8,0,23.7,0
			c0-1.3,0-2.5,0-3.7c0-0.7-0.2-0.8-0.9-0.8c-6.1,0-12.2,0-18.3,0c-1.1,0-2.3,0-3.4,0c-1,0-1.8,1-1.7,1.9
			C11.6,33.1,11.8,33.9,11.9,34.8z M15.5,35.8c1.4,1.1,2.2,2.6,2.4,4.3c0,0.1,0.4,0.3,0.6,0.3c5.5,0,11.1,0,16.6,0
			c0.5,0,0.6-0.2,0.6-0.6c0-1.2,0-2.3,0-3.5c0-0.5-0.2-0.6-0.7-0.6c-1.6,0-3.2,0-4.8,0C25.3,35.8,20.4,35.8,15.5,35.8z M35.6,41.4
			c-0.1,0-0.2-0.1-0.3-0.1c-5.7,0-11.4,0-17.1,0c-0.2,0-0.5,0.3-0.5,0.5c-0.4,1.4-1.2,2.6-2.4,3.4c-0.3,0.2-0.5,0.4-0.9,0.6
			c7.2,0,14.2,0,21.2,0C35.6,44.4,35.6,42.9,35.6,41.4z M49.8,35.8c-4.6,0-9,0-13.5,0c0,1.5,0,3,0,4.5c0.1,0,0.1,0.1,0.2,0.1
			c4.3,0,8.6,0,12.9,0c0.2,0,0.4-0.2,0.4-0.3C49.8,38.7,49.8,37.3,49.8,35.8z M49.7,30.4c-0.1,0-0.1-0.1-0.2-0.1
			c-4.3-0.2-8.6,0.4-12.9,0.8c-0.1,0-0.4,0.2-0.4,0.3c0,1.1,0,2.3,0,3.4c4.6,0,9,0,13.5,0C49.7,33.3,49.7,31.8,49.7,30.4z M36.3,46
			c2,0,3.9,0,5.8,0c0.9,0,1.8,0,2.2-1c0.1-0.2,0.3-0.3,0.4-0.4c1.5-1.2,3.2-1.5,5-0.6c0-0.9,0-1.7,0-2.6c-4.5,0-8.9,0-13.4,0
			C36.3,42.9,36.3,44.4,36.3,46z M9.8,24.7c-2.8,0-5.6,0-8.4,0c-0.1,0-0.4,0.2-0.4,0.4c0,1.4,0,2.8,0,4.1c0.1,0.1,0.2,0.1,0.2,0.1
			c2.5,0,5.1,0.1,7.6,0c0.5,0,1.4-0.7,1.4-1.1C10.2,27.1,9.9,25.9,9.8,24.7z M5,41.3c0,0.2,0,0.3,0.1,0.4c0.9,2.7,4.8,4.7,7.7,3.9
			c0.2,0,0.3-0.4,0.3-0.6c-0.2-1.1-0.3-2.2-0.6-3.3c0-0.2-0.3-0.4-0.4-0.4c-1,0-1.9,0-2.9,0C9.1,41.4,9,41.5,9,41.5
			c0.5,0.7,1,1.5,1.6,2.3c-1.1-0.4-1.8-1.1-2.4-2c-0.1-0.2-0.4-0.5-0.6-0.5C6.8,41.3,5.9,41.3,5,41.3z M1,34.9c1,0,1.9,0,2.8,0
			c0.2,0,0.4-0.2,0.5-0.4c0.5-0.7,0.9-1.5,1.4-2.1c0.6-0.7,1.2-1.3,1.9-2c-2.3,0-4.5,0-6.7,0C1,31.9,1,33.3,1,34.9z M1,41.3
			c0,1.6,0,3.1,0,4.6c1.3,0,2.5,0,3.7,0c1.2,0,2.4,0,3.8,0c-0.3-0.2-0.4-0.2-0.4-0.3c-1.8-1-3.3-2.1-4.1-4c-0.1-0.1-0.2-0.3-0.4-0.3
			C2.7,41.3,1.9,41.3,1,41.3z M10.5,35.8c-1.4,0-2.5,0-3.6,0c-0.2,0-0.4,0.1-0.5,0.2c-0.8,1.2-1.5,2.5-1.5,4c0,0.2,0.2,0.4,0.4,0.5
			c0.8,0,1.7,0,2.6,0C7.6,38.3,8.7,37,10.5,35.8z M3.5,35.8c-0.6,0-1.4,0-2.1,0c-0.1,0-0.4,0.2-0.4,0.3c0,1.4,0,2.9,0,4.3
			c0.9,0,1.7,0,2.6,0C3.5,38.8,3.5,37.4,3.5,35.8z M10.7,23.9c1.1,0,1.9,0,2.6,0c1.3,0,1.5-0.1,1.7-1.5c0-0.3,0-0.5,0-0.8
			c-0.1-0.6-0.2-1.2-0.9-1.4c-0.8-0.2-1.5,0.1-1.8,0.7C11.7,21.8,11.3,22.7,10.7,23.9z M13.7,45.4c1.7-0.5,2.7-2.1,2.5-3.6
			c0-0.1-0.3-0.4-0.4-0.4c-0.9,0-1.8,0-2.8,0C13.2,42.7,13.5,44.1,13.7,45.4z M10.8,31.6c-1.3,1.1-2.5,2.1-3.8,3.3
			c1.6,0,2.9,0,4.3,0C11.2,33.8,11,32.8,10.8,31.6z M10.7,27.8c0.1,0,0.2,0.1,0.3,0.1c1-1,2-2,2.9-3c0-0.1-0.1-0.1-0.1-0.2
			c-0.9,0-1.8,0-2.7,0c-0.1,0-0.4,0.2-0.4,0.3C10.7,26,10.7,26.9,10.7,27.8z M12.5,38.3c0.1,0.6,0.2,1.2,0.3,1.8
			c0,0.1,0.2,0.3,0.4,0.3c0.9,0,1.8,0,2.8,0C15.6,38.9,14.3,38,12.5,38.3z M12.3,40.4c-0.1-0.7-0.2-1.4-0.4-2.1
			c-1.7,0.1-2.7,0.9-2.7,2.1C10.2,40.4,11.2,40.4,12.3,40.4z"/>
	</g>
</g>
</svg>
